<mxfile host="65bd71144e">
    <diagram id="5jWS66OkcI7lht1l4ZPY" name="第 1 页">
        <mxGraphModel dx="1236" dy="1111" grid="1" gridSize="10" guides="1" tooltips="1" connect="1" arrows="1" fold="1" page="1" pageScale="1" pageWidth="1169" pageHeight="827" math="0" shadow="0">
            <root>
                <mxCell id="0"/>
                <mxCell id="1" parent="0"/>
                <mxCell id="103" value="" style="rounded=0;whiteSpace=wrap;html=1;fontFamily=Times New Roman;fontSize=24;" parent="1" vertex="1">
                    <mxGeometry width="1160" height="820" as="geometry"/>
                </mxCell>
                <mxCell id="2" value="&lt;font face=&quot;Times New Roman&quot; style=&quot;font-size: 24px;&quot;&gt;Customer&lt;/font&gt;" style="rounded=0;whiteSpace=wrap;html=1;" parent="1" vertex="1">
                    <mxGeometry x="470" y="234" width="120" height="60" as="geometry"/>
                </mxCell>
                <mxCell id="22" value="&lt;u&gt;Cid&lt;/u&gt;" style="ellipse;whiteSpace=wrap;html=1;fontFamily=Times New Roman;fontSize=24;" parent="1" vertex="1">
                    <mxGeometry x="575" y="154" width="70" height="40" as="geometry"/>
                </mxCell>
                <mxCell id="23" value="Cname" style="ellipse;whiteSpace=wrap;html=1;fontFamily=Times New Roman;fontSize=24;" parent="1" vertex="1">
                    <mxGeometry x="485" y="154" width="70" height="40" as="geometry"/>
                </mxCell>
                <mxCell id="25" value="" style="endArrow=none;html=1;rounded=0;sketch=0;strokeColor=default;fontFamily=Times New Roman;fontSize=24;exitX=0.5;exitY=1;exitDx=0;exitDy=0;" parent="1" source="23" target="2" edge="1">
                    <mxGeometry width="50" height="50" relative="1" as="geometry">
                        <mxPoint x="595" y="167" as="sourcePoint"/>
                        <mxPoint x="645" y="117" as="targetPoint"/>
                    </mxGeometry>
                </mxCell>
                <mxCell id="26" value="" style="endArrow=none;html=1;rounded=0;sketch=0;strokeColor=default;fontFamily=Times New Roman;fontSize=24;entryX=0.75;entryY=0;entryDx=0;entryDy=0;exitX=0.5;exitY=1;exitDx=0;exitDy=0;" parent="1" source="22" target="2" edge="1">
                    <mxGeometry width="50" height="50" relative="1" as="geometry">
                        <mxPoint x="604.9999999999998" y="177" as="sourcePoint"/>
                        <mxPoint x="664.9999999999998" y="162" as="targetPoint"/>
                    </mxGeometry>
                </mxCell>
                <mxCell id="73" value="" style="edgeStyle=none;rounded=0;sketch=0;html=1;strokeColor=default;fontFamily=Times New Roman;fontSize=24;shape=flexArrow;endArrow=block;endWidth=5.739795918367347;endSize=2.6892857142857145;width=3.928571428571429;entryX=1;entryY=0;entryDx=0;entryDy=0;" parent="1" source="38" target="71" edge="1">
                    <mxGeometry relative="1" as="geometry"/>
                </mxCell>
                <mxCell id="38" value="&lt;font face=&quot;Times New Roman&quot; style=&quot;font-size: 24px;&quot;&gt;Account&lt;/font&gt;" style="rounded=0;whiteSpace=wrap;html=1;" parent="1" vertex="1">
                    <mxGeometry x="855" y="183" width="120" height="60" as="geometry"/>
                </mxCell>
                <mxCell id="40" value="SDate" style="ellipse;whiteSpace=wrap;html=1;fontFamily=Times New Roman;fontSize=24;" parent="1" vertex="1">
                    <mxGeometry x="895" y="113" width="70" height="40" as="geometry"/>
                </mxCell>
                <mxCell id="41" value="OLA&lt;sup&gt;(1)&lt;/sup&gt;" style="ellipse;whiteSpace=wrap;html=1;fontFamily=Times New Roman;fontSize=24;" parent="1" vertex="1">
                    <mxGeometry x="1025" y="123" width="70" height="40" as="geometry"/>
                </mxCell>
                <mxCell id="43" value="" style="endArrow=none;html=1;rounded=0;sketch=0;strokeColor=default;fontFamily=Times New Roman;fontSize=24;entryX=0.5;entryY=1;entryDx=0;entryDy=0;" parent="1" source="38" edge="1">
                    <mxGeometry width="50" height="50" relative="1" as="geometry">
                        <mxPoint x="785" y="243" as="sourcePoint"/>
                        <mxPoint x="910" y="153" as="targetPoint"/>
                    </mxGeometry>
                </mxCell>
                <mxCell id="44" value="" style="endArrow=none;html=1;rounded=0;sketch=0;strokeColor=default;fontFamily=Times New Roman;fontSize=24;entryX=0;entryY=1;entryDx=0;entryDy=0;exitX=0.75;exitY=0;exitDx=0;exitDy=0;" parent="1" source="38" target="41" edge="1">
                    <mxGeometry width="50" height="50" relative="1" as="geometry">
                        <mxPoint x="805" y="463" as="sourcePoint"/>
                        <mxPoint x="1010" y="153" as="targetPoint"/>
                    </mxGeometry>
                </mxCell>
                <mxCell id="74" value="" style="edgeStyle=none;rounded=0;sketch=0;html=1;strokeColor=default;fontFamily=Times New Roman;fontSize=24;endArrow=none;endFill=0;" parent="1" source="71" target="2" edge="1">
                    <mxGeometry relative="1" as="geometry"/>
                </mxCell>
                <mxCell id="71" value="Own" style="rhombus;whiteSpace=wrap;html=1;fontFamily=Times New Roman;fontSize=24;" parent="1" vertex="1">
                    <mxGeometry x="715" y="213" width="80" height="80" as="geometry"/>
                </mxCell>
                <mxCell id="109" value="" style="edgeStyle=none;html=1;endArrow=none;endFill=0;" parent="1" source="108" target="38" edge="1">
                    <mxGeometry relative="1" as="geometry"/>
                </mxCell>
                <mxCell id="108" value="&lt;u&gt;Aid&lt;/u&gt;" style="ellipse;whiteSpace=wrap;html=1;fontFamily=Times New Roman;fontSize=24;" parent="1" vertex="1">
                    <mxGeometry x="800" y="114" width="70" height="40" as="geometry"/>
                </mxCell>
                <mxCell id="111" value="" style="edgeStyle=none;html=1;endArrow=none;endFill=0;" parent="1" source="110" target="71" edge="1">
                    <mxGeometry relative="1" as="geometry"/>
                </mxCell>
                <mxCell id="110" value="Pin" style="ellipse;whiteSpace=wrap;html=1;fontFamily=Times New Roman;fontSize=24;" parent="1" vertex="1">
                    <mxGeometry x="715" y="143" width="70" height="40" as="geometry"/>
                </mxCell>
            </root>
        </mxGraphModel>
    </diagram>
</mxfile>